PathFileType	4	(X/Y/Z)	C:\Users\WrightLab\Desktop\Jo\P5V28.trc
DataRate	CameraRate	NumFrames	NumMarkers	Units	OrigDataRate	OrigDataStartFrame	OrigNumFrames
100.00	100.00	       17	19	mm	100.00	460	       918
Frame#	Time	Headset_Front			Headset_Back			Headset_Left			Headset_Right			Left_Shoulder			Right_Shoulder			Sternum			C7			Left Elbow			Right Elbow			Left Wrist			Right Wrist			Left ASIS			Right ASIS			S2			Left Knee			Right Knee			Left Ankle			Right Ankle			
		X1	Y1	Z1	X2	Y2	Z2	X3	Y3	Z3	X4	Y4	Z4	X5	Y5	Z5	X6	Y6	Z6	X7	Y7	Z7	X8	Y8	Z8	X9	Y9	Z9	X10	Y10	Z10	X11	Y11	Z11	X12	Y12	Z12	X13	Y13	Z13	X14	Y14	Z14	X15	Y15	Z15	X16	Y16	Z16	X17	Y17	Z17	X18	Y18	Z18	X19	Y19	Z19	

460	4.590	-2.51374	1436.39307	-11.44330				61.38181	1581.69238	-152.78804	-112.72498	1539.95801	-3.73513	24.33707	1509.69653	-376.87695	-234.37636	1439.47864	-76.04940	-63.19943	1305.62720	-187.47087	-211.24220	1536.26758	-291.81146	52.02382	1220.70117	-472.90439	-262.28995	1177.53442	6.11195	90.52989	984.76001	-393.28360	-67.28413	1076.15674	99.90916	24.04262	934.72839	-279.69653	-183.55669	938.64087	-90.76962	-217.34581	994.75476	-402.47537	60.11392	506.89713	-321.72791	-277.07791	491.89285	-106.37469	-54.17841	87.71838	-382.31955	-413.25925	110.86167	-214.28717	
461	4.600	2.18096	1435.96997	-13.33845				64.87068	1581.22021	-154.57939	-108.06071	1539.54504	-4.59959	25.87928	1509.26062	-377.98447	-229.65866	1439.11609	-77.08795	-60.35659	1305.37415	-189.56480	-208.96439	1536.32654	-292.07715	51.95477	1220.40955	-475.98422	-254.42899	1177.68127	8.31011	90.69781	984.35364	-396.75861	-58.72584	1075.58203	99.92953	24.69188	934.32861	-282.31796	-181.52394	938.67645	-92.03049	-216.39064	994.56146	-402.49200	61.53811	506.77902	-322.19312	-275.12213	492.22153	-107.28850	-53.71886	87.51057	-382.19366	-413.08472	111.19938	-214.30423	
462	4.610	8.17192	1434.85229	-14.90590				68.17669	1580.68945	-156.95041	-103.34159	1539.41077	-5.62708	26.97865	1509.28186	-380.84958	-226.24161	1439.29016	-77.60165	-57.16280	1304.78821	-191.21960	-206.75183	1536.34583	-292.58151	52.11485	1220.31042	-479.08429	-246.81087	1178.14563	9.74984	91.11831	983.92938	-399.89435	-49.76680	1074.63904	98.95629	26.42320	934.06189	-284.02292	-180.19005	939.38873	-92.83827	-215.34662	994.99890	-403.70892	62.84962	506.40933	-324.08884	-273.86938	492.53836	-107.26606	-53.92204	87.59164	-382.37836	-413.03638	111.32348	-214.23288	
463	4.620	10.88772	1435.22693	-17.72044				71.41706	1580.57739	-159.51453	-98.89809	1538.79395	-6.91853	28.38620	1509.14355	-382.65948	-221.20377	1440.19653	-76.26295	-54.11843	1304.91528	-192.82050	-204.60492	1536.41931	-292.30383	52.27261	1219.86096	-480.83157	-238.91823	1178.32153	11.64113	91.43230	983.96759	-402.72211	-40.88087	1074.31042	98.49699	27.85670	934.15430	-286.49725	-178.72984	939.59912	-94.30022	-214.35275	994.96399	-404.58514	63.70782	506.69913	-325.76474	-273.00165	492.02509	-107.54463	-53.76990	87.40396	-382.36102	-412.98334	111.40760	-214.18089	
464	4.630	16.61736	1433.55347	-19.20653				74.80833	1579.65430	-162.09505	-94.09284	1538.49377	-7.84000	29.86311	1508.89941	-385.38593	-215.87569	1439.86011	-75.22709	-51.31313	1304.36243	-194.95177	-202.59673	1536.46204	-291.98639	52.63949	1219.89465	-482.24649	-231.40698	1178.90906	13.11914	91.88949	983.72638	-405.90958	-32.50400	1073.97412	98.96912	29.73225	933.71680	-288.76389	-177.59059	939.86963	-95.02780	-213.30566	995.19690	-405.41946	65.16410	506.93341	-327.68942	-271.59784	492.72852	-107.73091	-53.78537	87.39089	-382.36588	-412.95483	111.54640	-214.12216	
465	4.640	20.55609	1433.70752	-20.66595				77.79224	1579.80811	-164.16119	-89.49356	1537.92322	-8.85140	31.47037	1508.94824	-387.14941	-211.74709	1439.93860	-75.44434	-48.84967	1303.79297	-196.16193	-200.48004	1536.49829	-292.17093	52.89700	1219.89270	-485.76181	-223.80824	1179.42285	14.58592	92.00192	982.94965	-409.64655	-24.61649	1073.31396	98.68172	30.99996	933.57104	-290.75272	-175.40970	939.99060	-96.36874	-212.37477	995.46167	-406.97598	66.70378	506.93872	-328.69955	-270.68884	492.46463	-108.75756	-53.43484	87.58683	-381.89368	-413.06454	111.98230	-214.64401	
466	4.650	24.10630	1432.52026	-22.92356				81.11960	1579.16895	-166.25623	-86.39989	1537.58667	-9.65030	33.24568	1508.73462	-389.26630	-207.98831	1439.52515	-76.34854	-46.54231	1303.79077	-197.99423	-197.96474	1536.58032	-292.75571	53.45442	1220.02087	-489.77127	-216.97173	1179.80054	15.72741	92.47142	982.54370	-412.34039	-15.82436	1072.59998	98.01440	33.02036	933.69684	-292.44525	-175.06342	940.56598	-97.89202	-211.27649	995.66846	-407.85770	67.39996	506.42792	-329.84708	-269.46448	492.53769	-109.47832	-53.41447	87.55520	-381.90784	-412.81375	112.65841	-214.36952	
467	4.660	28.23692	1432.16272	-24.27569				84.21467	1579.24170	-168.74571	-81.80153	1536.80701	-10.71049	34.16973	1508.23669	-390.56183	-202.70830	1440.03223	-75.82091	-44.16587	1302.53528	-199.68031	-196.10893	1537.02002	-292.72549	53.82322	1219.57227	-491.58475	-209.11678	1180.06653	17.21866	93.01759	982.28632	-415.20529	-8.97937	1072.42383	97.86704	34.60528	933.14276	-294.84717	-173.47256	940.78815	-98.92007	-210.44234	995.58728	-409.17767	68.28284	506.17517	-331.31967	-269.13791	493.11935	-109.56385	-53.61081	87.45725	-382.50583	-412.58411	112.93946	-214.22520	
468	4.670	31.61717	1431.37793	-26.43622				87.37536	1578.53308	-170.56989	-77.50651	1536.38721	-11.49125	35.99479	1507.75818	-393.28503	-198.36064	1440.25806	-75.63020	-41.82287	1302.91174	-201.22078	-193.85925	1536.65308	-292.06696	53.59525	1219.53857	-494.07837	-202.31644	1179.93518	18.23326	92.70648	981.68005	-418.05603	-0.92826	1071.96509	97.60634	36.05094	933.36749	-296.77380	-172.08755	940.72382	-101.10479	-209.57536	995.73883	-410.35208	69.73913	506.50143	-332.28391	-268.69107	493.04251	-109.44547	-53.28548	87.56975	-382.08072	-412.46603	113.15451	-214.52901	
469	4.680	35.41115	1431.11572	-27.75235				90.59630	1578.21045	-172.64685	-74.04762	1536.21497	-12.57026	37.44244	1507.80542	-395.07193	-194.72809	1439.76819	-76.43557	-39.80400	1302.33252	-202.58095	-191.87614	1536.77527	-292.11243	53.68876	1219.10974	-495.76520	-195.64809	1180.21716	19.13827	93.24884	981.40179	-420.77441	6.14135	1071.61926	97.04491	39.50578	934.89453	-298.30536	-170.94130	941.16718	-102.39371	-208.82567	995.85895	-410.68622	70.10551	506.22073	-333.81415	-268.56470	492.94577	-110.43143	-53.57621	87.41120	-382.53024	-412.39572	113.29522	-214.47537	
470	4.690	39.20990	1430.37317	-30.06462				92.99770	1577.75208	-173.99098	-70.20480	1535.97852	-13.52535	38.60479	1507.89673	-396.73315	-190.23343	1439.73083	-75.55687	-37.64422	1301.86682	-203.88167	-189.76088	1537.16296	-292.50949	54.16576	1218.78223	-497.92004	-189.41519	1181.18140	20.70029	92.69559	980.63934	-424.54205	13.40577	1070.70300	96.97775	40.16364	934.51617	-299.92770	-169.68465	941.41760	-103.63312	-208.29576	996.54047	-412.73349	71.28671	506.28448	-335.45248	-268.56189	493.53287	-111.39933	-53.58040	87.39733	-382.53641	-412.15894	113.46456	-214.49736	
471	4.700	42.28722	1429.85840	-31.39265				96.05464	1577.31287	-175.47591	-66.29256	1535.23877	-14.66000	40.08426	1507.65942	-398.38989	-186.50757	1439.11987	-76.83403	-35.95543	1301.57361	-205.07327	-188.02457	1537.57178	-292.19257	55.11774	1219.06604	-502.41708	-182.78879	1181.22900	21.35976	92.45074	980.20056	-427.40811	20.30838	1070.16992	96.52272	40.97543	933.70703	-301.62210	-169.44232	940.96692	-104.98026	-207.66820	996.99506	-413.33420	71.67321	505.73624	-336.40317	-267.87482	493.96335	-111.96247	-53.27174	87.51480	-382.10767	-411.97397	113.65630	-213.75478	
472	4.710	45.23773	1429.66296	-33.55669				98.64591	1576.65088	-177.13443	-62.51428	1534.46667	-15.39196	41.39645	1507.37317	-399.76874	-183.39076	1438.37805	-78.51052	-33.35880	1301.15137	-206.73296	-186.22832	1537.06836	-291.82867	54.57149	1218.41956	-502.11853	-176.65799	1180.63049	21.35615	92.15533	979.96582	-429.25861	26.28248	1069.93958	96.22769	43.46678	934.92719	-302.55786	-166.89961	941.42334	-105.82052	-207.38840	997.09863	-413.93570	72.73322	506.12302	-338.40265	-267.14661	493.63333	-112.41143	-53.27690	87.48782	-382.12219	-411.73492	113.94776	-213.66473	
473	4.720	49.63032	1428.76697	-34.59851				101.48352	1576.17664	-179.23959	-59.15768	1534.38757	-16.36780	42.90253	1506.96533	-400.64929	-178.78969	1438.88855	-77.14395	-30.84060	1301.11230	-208.69453	-183.88776	1537.61084	-292.09705	54.69223	1218.78516	-504.62250	-170.82967	1180.73889	22.10923	91.88206	979.34027	-432.19260	33.50624	1069.21167	95.60766	43.40434	934.62616	-304.16153	-166.51080	941.36780	-106.97251	-207.19032	997.74286	-414.88992	73.22894	506.30780	-339.67551	-266.53751	494.34677	-112.37696	-53.58085	87.36880	-382.54971	-411.62399	114.06934	-213.58247	
474	4.730	52.12856	1428.25427	-36.38579				104.31110	1575.81836	-180.65709	-55.50398	1534.02368	-17.22268	44.12597	1506.92639	-402.71664	-174.65685	1439.20874	-76.81873	-28.93255	1300.65234	-210.14426	-181.79701	1537.50269	-290.94138	54.29369	1218.27710	-505.95941	-164.75871	1181.04968	22.52991	91.84966	978.66724	-435.40488	39.21329	1068.29395	94.69460	44.45921	934.60248	-305.81183	-166.14825	941.26532	-108.28506	-206.92885	998.01880	-415.47928	73.13467	506.31976	-341.40555	-266.42432	494.56668	-112.76511	-53.60221	87.35651	-382.55371	-411.32489	114.31783	-213.76540	
475	4.740	55.83548	1427.53955	-37.87059				107.01286	1575.62598	-182.26431	-51.87048	1533.43286	-17.99094	45.41508	1506.70081	-404.26285	-170.41563	1438.90186	-76.91985	-26.68054	1300.13660	-211.60791	-180.09943	1537.55347	-291.39252	53.97489	1218.28979	-508.54785	-159.14270	1180.98767	22.99135	91.81431	978.38153	-438.40982	44.07822	1068.41492	94.74741	44.93347	934.29083	-307.25146	-165.17206	941.80951	-108.93969	-206.72609	998.33411	-416.26309	73.81329	506.39246	-342.73190	-265.94632	494.78497	-113.13570	-53.28231	87.46072	-382.13681	-411.26852	114.86393	-214.04112	
476	4.750	58.49234	1426.97021	-38.50269				109.94614	1574.73120	-183.68172	-49.19828	1533.15771	-18.59543	46.94703	1506.38843	-405.55499	-165.42882	1438.77295	-76.79354	-24.83563	1299.91785	-213.34911	-177.30881	1537.24597	-291.24115	54.10307	1218.33740	-509.75674	-152.99640	1181.60815	23.42434	92.40000	978.30487	-439.99683	49.25541	1068.32910	94.25407	45.58115	934.01294	-309.18857	-164.36380	941.77588	-110.05076	-206.42822	998.53961	-416.35217	74.49068	506.30960	-344.28171	-265.92276	494.81400	-113.13017	-53.25380	87.44511	-382.14185	-411.17606	115.20802	-214.24423	
